<svg height="512pt" viewBox="0 0 512 512.00066" width="512pt" xmlns="http://www.w3.org/2000/svg" fill="white"><path d="m469.332031 42.667969c-.027343-23.554688-19.113281-42.6406252-42.664062-42.667969h-384c-23.554688.0273438-42.6406252 19.113281-42.667969 42.667969v315.730469c.0273438 23.554687 19.113281 42.640624 42.667969 42.667968h139c8.511719 22.800782 21.792969 43.523438 38.953125 60.78125l.078125.121094.117187.078125c36.539063 36.585937 87.726563 54.589844 139.125 48.929687 51.398438-5.660156 97.441406-34.367187 125.144532-78.03125.152343-.195312.375-.3125.511718-.527343.121094-.277344.222656-.5625.308594-.851563 40.164062-63.75 33.410156-146.359375-16.574219-202.738281zm-426.664062 341.332031c-14.140625 0-25.601563-11.460938-25.601563-25.601562v-315.730469c0-14.140625 11.460938-25.601563 25.601563-25.601563h384c14.136719 0 25.597656 11.460938 25.597656 25.601563v169.230469c-5.136719-4.449219-10.53125-8.589844-16.160156-12.398438l-.09375-.09375c-.050781 0-.121094 0-.179688-.066406-2.96875-1.988282-6.066406-3.78125-9.164062-5.582032v-92.125c-.230469-9.207031-7.859375-16.496093-17.066407-16.300781h-349.867187c-9.207031-.195312-16.839844 7.09375-17.066406 16.300781v240.46875c.226562 9.207032 7.859375 16.492188 17.066406 16.296876h111.785156c.929688 8.644531 2.515625 17.203124 4.753907 25.601562zm184.363281 59.570312c-39.472656-43.875-50.226562-106.523437-27.644531-161.050781 22.582031-54.527343 74.480469-91.230469 133.414062-94.351562v149.632812zm-90.496094-102.238281v-34.132812h37.546875c-2.28125 11.234375-3.425781 22.671875-3.414062 34.132812zm-76.800781-.042969v-34.089843h59.734375v34.132812zm349.867187-238.820312v34.066406h-273.066406v-34.136718zm-68.269531 68.199219c-25.605469.027343-50.871093 5.863281-73.898437 17.066406h-130.898438v-34.132813h273.066406v31.417969c-21.515624-9.46875-44.761718-14.355469-68.269531-14.351562zm-162.796875 119.464843h-42v-34.132812h57.222656c-6.3125 10.785156-11.417968 22.230469-15.222656 34.132812zm-118.800781-102.398437v-34.132813h59.734375v34.132813zm59.734375 17.066406v34.132813h-59.734375v-34.132813zm-59.734375 51.199219h59.734375v34.132812h-59.734375zm145.390625-17.066406h-68.589844v-34.132813h102.832032c-12.964844 9.707031-24.492188 21.199219-34.242188 34.132813zm-85.65625-102.398438h-59.734375v-34.136718h59.734375zm230.398438 51.632813c24.476562 1.320312 48.273437 8.53125 69.367187 21.019531l-69.367187 103.984375zm-8.535157 306.765625c-37.757812-.003906-74.175781-13.984375-102.234375-39.253906l103.449219-103.492188 123.730469 78.140625c-28.738282 40.484375-75.292969 64.558594-124.945313 64.605469zm134.152344-78.992188-122.203125-77.167968 80.128906-120.105469c61.523438 45.882812 79.519532 130.261719 42.066406 197.253906zm0 0"/><path d="m59.734375 59.734375h17.066406c4.710938 0 8.53125-3.820313 8.53125-8.535156 0-4.710938-3.820312-8.53125-8.53125-8.53125h-17.066406c-4.714844 0-8.535156 3.820312-8.535156 8.53125 0 4.714843 3.820312 8.535156 8.535156 8.535156zm0 0"/><path d="m110.933594 59.734375h17.066406c4.714844 0 8.535156-3.820313 8.535156-8.535156 0-4.710938-3.820312-8.53125-8.535156-8.53125h-17.066406c-4.710938 0-8.535156 3.820312-8.535156 8.53125 0 4.714843 3.824218 8.535156 8.535156 8.535156zm0 0"/><path d="m162.132812 59.734375h34.132813c4.714844 0 8.535156-3.820313 8.535156-8.535156 0-4.710938-3.820312-8.53125-8.535156-8.53125h-34.132813c-4.710937 0-8.53125 3.820312-8.53125 8.53125 0 4.714843 3.820313 8.535156 8.53125 8.535156zm0 0"/><path d="m230.398438 59.734375h187.734374c4.714844 0 8.535157-3.820313 8.535157-8.535156 0-4.710938-3.820313-8.53125-8.535157-8.53125h-187.734374c-4.710938 0-8.53125 3.820312-8.53125 8.53125 0 4.714843 3.820312 8.535156 8.53125 8.535156zm0 0"/></svg>