<svg xmlns:dc="http://purl.org/dc/elements/1.1/" xmlns:cc="http://creativecommons.org/ns#" xmlns:rdf="http://www.w3.org/1999/02/22-rdf-syntax-ns#" xmlns:svg="http://www.w3.org/2000/svg" xmlns="http://www.w3.org/2000/svg" viewBox="0 0 256 256" fill="none"><metadata><rdf:RDF><cc:Work><dc:format>image/svg+xml</dc:format><dc:type rdf:resource="http://purl.org/dc/dcmitype/StillImage"/><dc:title>Croodles - Doodle your face</dc:title><dc:creator><cc:Agent><dc:title>vijay verma</dc:title></cc:Agent></dc:creator><dc:source>https://www.figma.com/community/file/966199982810283152</dc:source><cc:license rdf:resource="https://creativecommons.org/licenses/by/4.0/"/></cc:Work><cc:License rdf:about="https://creativecommons.org/licenses/by/4.0/"><cc:permits rdf:resource="https://creativecommons.org/ns#Reproduction"/><cc:permits rdf:resource="https://creativecommons.org/ns#Distribution"/><cc:permits rdf:resource="https://creativecommons.org/ns#DerivativeWorks"/><cc:requires rdf:resource="https://creativecommons.org/ns#Notice"/><cc:requires rdf:resource="https://creativecommons.org/ns#Attribution"/></cc:License></rdf:RDF></metadata><mask id="avatarsRadiusMask"><rect width="256" height="256" rx="0" ry="0" x="0" y="0" fill="#fff"/></mask><g mask="url(#avatarsRadiusMask)"><g><path d="M73.714 93.458c1.565-7.324 4.064-12.072 7.06-16.638.035-.112.083-.221.145-.327 2.925-4.944 8.893-9.453 16.362-13.028 7.515-3.597 16.736-6.34 26.408-7.637 19.003-2.551 40.181.431 53.487 14.053.237.06.462.182.652.364 7.783 7.47 9.482 18.453 9.188 30.282-.011.432-.024.867-.04 1.303 1.487.307 3.343 1.254 4.775 3.168 1.834 2.45 2.853 6.305 1.862 12.066-.43 2.501-.923 4.09-1.567 5.504-.384.843-.847 1.662-1.343 2.538-.277.491-.564.999-.853 1.54-.707 1.32-1.51 2.806-2.6 3.714-.594.494-1.316.86-2.183.941-.293.027-.585.02-.877-.017-.2 2.146-.371 4.277-.496 6.385-2.187 36.958-4.655 59.814-22.109 79.198-16.882 18.747-43.576 13.371-56.954.058-10.756-10.704-28.535-32.965-32.01-83.46-1.903.338-3.712-.901-5.12-3.008-1.543-2.309-2.958-6.09-4.033-11.786-1.032-5.465-.283-9.335 1.517-11.882a8.246 8.246 0 0 1 6.77-3.524c.203 0 .397.042.573.117.304-3.794.773-7.053 1.386-9.924Z" fill="rgba(255, 255, 255, 0)"/><g stroke="#000" stroke-width="3" stroke-linecap="round" stroke-linejoin="round"><path d="M186.418 102.234c2.238 0 8.261 2.671 6.343 13.766-.842 4.87-1.878 5.906-3.668 9.233-1.514 2.813-2.735 4.84-5.48 3.522M70.397 103.803c-3.813 0-8.954 3.22-6.948 13.797 2.154 11.351 5.56 14.377 7.83 13.699"/><path d="M82.16 74.404C74.975 84.818 70.366 93.918 72.66 131c3.213 51.899 21.394 74.456 32.204 85.161 13.18 13.049 39.297 18.138 55.713 0 17.334-19.153 19.857-41.718 22.084-79.161 1.478-24.861 9.352-52.816-5.5-67"/></g><g transform="translate(117 131)"><path d="M24.26 5c-.79 5.338-1.113 16.334.387 22.334 3.517 14.067-1.546 17.47-3.286 17.47-5.263 0-6.502-4.699-7.71-17.991-1.5-16.5-1.542-16.351-3.651-20.974" stroke="#000" stroke-width="3" stroke-linecap="round" stroke-linejoin="round"/></g><g transform="translate(63 147)"/><g transform="translate(100 194)"><path d="M17 12s13.39 3.898 36.157 0" stroke="#000" stroke-width="3" stroke-linecap="round" stroke-linejoin="round"/></g><g transform="translate(0 -34)"><g stroke="rgba(151, 71, 255, 1)" stroke-width="3" stroke-linecap="round" stroke-linejoin="round"><path d="M102.281 98.514c6.427-9.934 11.102-12.27 19.282-16.945M88.841 102.262c4.414-.979 7.505-3.055 10.89-7.975M96.066 104.591c3.458.337 6.21-.441 9.856-3.226M96.617 91.356c4.542-4.238 9.597-1.963 15.419-7.245M160.004 101.435c-2.213-1.168-.459-8.845 3.047-12.935M164.833 92.086c-.195 3.117.467 10.401 4.674 14.608M169.499 92.76c.243 1.984 1.628 6.463 5.225 8.499M109.293 99.098c2.142-5.259 9.699-14.024 25.125-18.698M115.136 103.188C118.642 94.424 134.051 87.5 144.551 78M126.238 103.773c1.446-5.035 2.503-7.925 6.313-10.773 7.5-3.5 17-10.5 21-20M135.587 106.11c0-10.61 12.464-13.61 23.464-26.61M147.273 101.435C148.442 96.176 152.551 95 159.551 86M77 100.326c5.187-.199 11.272-2.01 15.502-5.962"/></g></g><g transform="translate(72 160)"/><g transform="translate(72 89)"><g stroke="#000" stroke-width="3" stroke-linecap="round" stroke-linejoin="round"><path d="M33.046 35.608c-1.817-1.754.438-4.382 2.423-3.389 2.482 1.241 3.41 4.32 1.239 6.491-2.171 2.172-7.167.782-7.477-4.492-.31-5.275 6.46-9.173 9.872-2.968 3.413 6.205 2.323 11.804-5.148 11.804-5.088 0-7.3-3.526-7.813-6.898-1.03-6.753 2.409-13.665 9.69-11.992 4.483 1.03 9.653 3.956 8.722 13.264-.93 9.307-5.932 10.236-12.293 9.146-7.666-1.314-9.752-8.177-7.268-15.93M78.465 35.608c-1.817-1.754.438-4.382 2.423-3.389 2.481 1.241 3.41 4.32 1.239 6.491-2.171 2.172-7.167.782-7.477-4.492-.31-5.275 6.46-9.173 9.872-2.968 3.413 6.205 2.323 11.804-5.148 11.804-5.088 0-7.3-3.526-7.813-6.898-1.03-6.753 2.409-13.665 9.69-11.992 4.483 1.03 9.653 3.956 8.722 13.264-.93 9.307-5.932 10.236-12.293 9.146-7.666-1.314-9.752-8.177-7.268-15.93M29.773 15.88c3.085 2.178 8.839 2.639 12.115 1M72.204 16.791c3.613 1.103 9.221-.26 11.82-2.84"/></g></g></g></g></svg>